<svg width="988" height="988" viewBox="0 0 988 988" fill="none" xmlns="http://www.w3.org/2000/svg">
<g opacity="0.2">
<circle cx="476.573" cy="496.576" r="264.641" transform="rotate(-35 476.573 496.576)" fill="white" fill-opacity="0.3"/>
<path d="M401.39 399.904C461.253 357.988 543.761 372.536 585.678 432.398C627.594 492.261 613.045 574.769 553.183 616.686C493.32 658.602 410.812 644.053 368.896 584.19C326.98 524.328 341.528 441.82 401.39 399.904ZM433.664 445.995C399.257 470.087 390.895 517.51 414.987 551.917C439.079 586.324 486.502 594.686 520.909 570.594C555.316 546.502 563.678 499.079 539.586 464.672C515.494 430.265 468.071 421.903 433.664 445.995Z" fill="white" fill-opacity="0.6"/>
<circle cx="476.515" cy="505.518" r="190.385" transform="rotate(-35 476.515 505.518)" stroke="white" stroke-width="2"/>
<circle cx="493.888" cy="493.888" r="353.619" transform="rotate(-35 493.888 493.888)" stroke="white" stroke-width="2" stroke-dasharray="4 4"/>
</g>
</svg>
