<svg width="1023" height="924" viewBox="0 0 1023 924" fill="none" xmlns="http://www.w3.org/2000/svg">
<path fill-rule="evenodd" clip-rule="evenodd" d="M561 924C305.844 924 98.9997 717.156 98.9997 462C98.9997 206.844 305.844 0 561 0C816.155 0 1023 206.844 1023 462C1023 717.156 816.155 924 561 924ZM561 696C431.765 696 327 591.235 327 462C327 332.765 431.765 228 561 228C690.234 228 795 332.765 795 462C795 591.235 690.234 696 561 696Z" fill="#EAEBDC"/>
<path fill-rule="evenodd" clip-rule="evenodd" d="M49.5 658C22.1619 658 -1.72853e-06 635.838 -1.72853e-06 608.5C-1.72853e-06 581.162 22.1619 559 49.5 559C76.8381 559 99 581.162 99 608.5C99 635.838 76.8381 658 49.5 658ZM49.5 633.571C35.6534 633.571 24.4286 622.346 24.4286 608.5C24.4286 594.653 35.6534 583.428 49.5 583.428C63.3466 583.428 74.5714 594.653 74.5714 608.5C74.5714 622.346 63.3466 633.571 49.5 633.571Z" fill="#ECEDDF"/>
</svg>
