<svg width="730" height="729" viewBox="0 0 730 729" fill="none" xmlns="http://www.w3.org/2000/svg">
<path fill-rule="evenodd" clip-rule="evenodd" d="M66.5 729C29.7731 729 -7.33137e-06 699.227 -7.33137e-06 662.5C-7.33137e-06 625.773 29.7731 596 66.5 596C103.227 596 133 625.773 133 662.5C133 699.227 103.227 729 66.5 729ZM66.5 696.182C47.898 696.182 32.8182 681.102 32.8182 662.5C32.8182 643.898 47.898 628.818 66.5 628.818C85.102 628.818 100.182 643.898 100.182 662.5C100.182 681.102 85.102 696.182 66.5 696.182Z" fill="#ECEDDF"/>
<path fill-rule="evenodd" clip-rule="evenodd" d="M392 676C205.328 676 54 524.672 54 338C54 151.328 205.328 0 392 0C578.672 0 730 151.328 730 338C730 524.672 578.672 676 392 676ZM392 509.195C297.452 509.195 220.805 432.548 220.805 338C220.805 243.452 297.452 166.805 392 166.805C486.548 166.805 563.195 243.452 563.195 338C563.195 432.548 486.548 509.195 392 509.195Z" fill="#EAEBDC"/>
</svg>
