<svg width="26" height="26" viewBox="0 0 26 26" fill="none" xmlns="http://www.w3.org/2000/svg">
<g clip-path="url(#clip0_129_25)">
<path d="M26 13C26 5.82032 20.1797 1.71661e-05 13 1.71661e-05C5.8203 1.71661e-05 0 5.82032 0 13C0 19.0967 4.19718 24.2123 9.8595 25.6172V16.9726H7.1788V13H9.8595V11.2882C9.8595 6.86344 11.8619 4.81256 16.206 4.81256C17.0296 4.81256 18.4507 4.97402 19.032 5.13553V8.73674C18.7252 8.70445 18.1923 8.68827 17.5302 8.68827C15.3985 8.68827 14.5749 9.49573 14.5749 11.5951V13H18.8212L18.0917 16.9726H14.5749V25.9048C21.0118 25.1273 26 19.6465 26 13Z" fill="#333333"/>
<path d="M18.0916 16.9726L18.8211 13H14.5749V11.595C14.5749 9.49568 15.3985 8.68828 17.5301 8.68828C18.1922 8.68828 18.7251 8.7044 19.0319 8.73669V5.13554C18.4506 4.97402 17.0295 4.81251 16.2059 4.81251C11.8619 4.81251 9.85941 6.86344 9.85941 11.2882V13H7.17871V16.9726H9.85941V25.6172C10.8652 25.8667 11.9169 26 12.9999 26C13.5331 26 14.0585 25.9671 14.5749 25.9048V16.9726H18.0916Z" fill="white"/>
</g>
<defs>
<clipPath id="clip0_129_25">
<rect width="26" height="26" fill="white"/>
</clipPath>
</defs>
</svg>
