<svg width="767" height="126" viewBox="0 0 767 126" fill="none" xmlns="http://www.w3.org/2000/svg">
<path opacity="0.6" d="M731.732 91.2402H661.073L646.447 124.48H626.883L687.095 -8.48045H705.9L766.302 124.48H746.358L731.732 91.2402ZM725.084 76.0447L696.403 10.8939L667.721 76.0447H725.084Z" fill="#F4F5EB"/>
<path opacity="0.6" d="M621.302 8.04469H575.715V124.48H557.1V8.04469H511.704V-8.48045H621.302V8.04469Z" fill="#F4F5EB"/>
<path opacity="0.6" d="M462.056 -8.48045H480.86V124.48H462.056V-8.48045Z" fill="#F4F5EB"/>
<path opacity="0.6" d="M395.372 55.5307C404.363 57.6834 411.137 61.5456 415.696 67.1173C420.381 72.5624 422.724 79.5903 422.724 88.2011C422.724 99.7244 418.482 108.652 409.998 114.983C401.64 121.315 389.42 124.48 373.339 124.48H312.556V-8.48045H369.73C384.292 -8.48045 395.625 -5.50466 403.73 0.446918C411.961 6.27187 416.076 14.6927 416.076 25.7095C416.076 32.9274 414.24 39.0689 410.568 44.1341C407.022 49.1993 401.957 52.9981 395.372 55.5307ZM331.361 50.0224H368.4C377.644 50.0224 384.672 48.1862 389.484 44.514C394.422 40.8417 396.892 35.46 396.892 28.3687C396.892 21.2775 394.422 15.8957 389.484 12.2235C384.545 8.42458 377.517 6.52513 368.4 6.52513H331.361V50.0224ZM372.959 109.475C393.346 109.475 403.54 101.877 403.54 86.6816C403.54 79.0838 400.944 73.5121 395.752 69.9665C390.687 66.2942 383.089 64.4581 372.959 64.4581H331.361V109.475H372.959Z" fill="#F4F5EB"/>
<path opacity="0.6" d="M228.074 126C214.778 126 202.749 123.088 191.985 117.263C181.348 111.311 172.991 103.207 166.912 92.9497C160.834 82.5661 157.795 70.9162 157.795 58C157.795 45.0838 160.834 33.4972 166.912 23.2402C172.991 12.8566 181.412 4.75232 192.175 -1.07263C202.939 -7.02421 214.968 -10 228.264 -10C238.648 -10 248.145 -8.22719 256.756 -4.68157C265.367 -1.26258 272.711 3.86591 278.79 10.7039L266.443 22.6704C256.439 12.1601 243.966 6.90502 229.024 6.90502C219.147 6.90502 210.22 9.12104 202.242 13.5531C194.264 17.9851 187.996 24.1266 183.438 31.9777C179.006 39.702 176.79 48.3762 176.79 58C176.79 67.6238 179.006 76.3613 183.438 84.2123C187.996 91.9367 194.264 98.0149 202.242 102.447C210.22 106.879 219.147 109.095 229.024 109.095C243.84 109.095 256.313 103.777 266.443 93.1397L278.79 105.106C272.711 111.944 265.304 117.136 256.566 120.682C247.955 124.227 238.458 126 228.074 126Z" fill="#F4F5EB"/>
<path opacity="0.6" d="M59.8492 126C46.4264 126 34.3333 123.088 23.5698 117.263C12.8063 111.311 4.32216 103.143 -1.88268 92.7598C-7.96089 82.3762 -11 70.7896 -11 58C-11 45.2104 -7.96089 33.6238 -1.88268 23.2402C4.32216 12.8566 12.8063 4.75232 23.5698 -1.07263C34.3333 -7.02421 46.4264 -10 59.8492 -10C73.1453 -10 85.1751 -7.02421 95.9386 -1.07263C106.702 4.75232 115.123 12.8566 121.201 23.2402C127.279 33.4972 130.318 45.0838 130.318 58C130.318 70.9162 127.279 82.5661 121.201 92.9497C115.123 103.207 106.702 111.311 95.9386 117.263C85.1751 123.088 73.1453 126 59.8492 126ZM59.8492 109.095C69.5996 109.095 78.3371 106.879 86.0615 102.447C93.9125 98.0149 100.054 91.9367 104.486 84.2123C109.045 76.3613 111.324 67.6238 111.324 58C111.324 48.3762 109.045 39.702 104.486 31.9777C100.054 24.1266 93.9125 17.9851 86.0615 13.5531C78.3371 9.12104 69.5996 6.90502 59.8492 6.90502C50.0987 6.90502 41.2346 9.12104 33.257 13.5531C25.406 17.9851 19.2011 24.1266 14.6425 31.9777C10.2104 39.702 7.99442 48.3762 7.99442 58C7.99442 67.6238 10.2104 76.3613 14.6425 84.2123C19.2011 91.9367 25.406 98.0149 33.257 102.447C41.2346 106.879 50.0987 109.095 59.8492 109.095Z" fill="#F4F5EB"/>
</svg>
