<svg width="784" height="193" viewBox="0 0 784 193" fill="none" xmlns="http://www.w3.org/2000/svg">
<path opacity="0.6" d="M783.576 195.267H733.802L733.255 93.8046L684.028 176.396H659.962L611.009 96.5394V195.267H560.961V3.82877H605.539L672.816 114.316L738.452 3.82877H783.029L783.576 195.267Z" fill="#F4F5EB"/>
<path opacity="0.6" d="M419.878 153.424H519.973V195.267H366.275V3.82877H516.417V45.6716H419.878V77.9426H504.931V118.418H419.878V153.424Z" fill="#F4F5EB"/>
<path opacity="0.6" d="M222.488 195.267V46.7656H163.689V3.82877H335.163V46.7656H276.637V195.267H222.488Z" fill="#F4F5EB"/>
<path opacity="0.6" d="M63.6774 199.095C32.2269 199.095 1.04987 190.618 -17 178.037L0.776381 138.109C17.7323 149.322 41.7988 156.979 63.9509 156.979C86.3765 156.979 95.128 150.689 95.128 141.391C95.128 111.034 -13.7182 133.186 -13.7182 62.0806C-13.7182 27.8952 14.177 0 71.0615 0C95.9484 0 121.656 5.74315 140.526 16.6824L123.844 56.8844C105.52 47.039 87.4704 42.1164 70.788 42.1164C48.0889 42.1164 39.8844 49.7739 39.8844 59.3458C39.8844 88.6084 148.457 66.7298 148.457 137.288C148.457 170.653 120.562 199.095 63.6774 199.095Z" fill="#F4F5EB"/>
</svg>
