<svg width="186" height="163" viewBox="0 0 186 163" fill="none" xmlns="http://www.w3.org/2000/svg">
<g opacity="0.3">
<path d="M54.6331 15.2836C84.6677 -5.74676 126.064 1.5525 147.095 31.587C168.125 61.6215 160.826 103.018 130.791 124.048C100.757 145.079 59.3601 137.779 38.3297 107.745C17.2993 77.7104 24.5986 36.314 54.6331 15.2836ZM72.493 40.7901C56.5452 51.9569 52.6694 73.9373 63.8362 89.8851C75.003 105.833 96.9834 109.709 112.931 98.5419C128.879 87.3751 132.755 65.3947 121.588 49.4469C110.421 33.499 88.4408 29.6233 72.493 40.7901Z" fill="white" fill-opacity="0.6"/>
</g>
<circle opacity="0.5" cx="97" cy="71" r="41" fill="white"/>
<circle opacity="0.4" cx="84" cy="61" r="41" fill="white"/>
</svg>
