<svg width="860" height="860" viewBox="0 0 860 860" fill="none" xmlns="http://www.w3.org/2000/svg">
<path fill-rule="evenodd" clip-rule="evenodd" d="M106.5 776C87.4462 776 72 760.554 72 741.5C72 722.446 87.4462 707 106.5 707C125.554 707 141 722.446 141 741.5C141 760.554 125.554 776 106.5 776ZM106.5 758.974C96.8494 758.974 89.026 751.151 89.026 741.5C89.026 731.849 96.8494 724.026 106.5 724.026C116.151 724.026 123.974 731.849 123.974 741.5C123.974 751.151 116.151 758.974 106.5 758.974Z" fill="#EAEBDC"/>
<path fill-rule="evenodd" clip-rule="evenodd" d="M409.5 310C374.43 310 346 281.57 346 246.5C346 211.43 374.43 183 409.5 183C444.57 183 473 211.43 473 246.5C473 281.57 444.57 310 409.5 310ZM409.5 278.662C391.737 278.662 377.338 264.263 377.338 246.5C377.338 228.737 391.737 214.338 409.5 214.338C427.263 214.338 441.662 228.737 441.662 246.5C441.662 264.263 427.263 278.662 409.5 278.662Z" fill="#EAEBDC"/>
<path fill-rule="evenodd" clip-rule="evenodd" d="M430 860C192.518 860 2.30213e-05 667.482 2.30213e-05 430C2.30213e-05 192.518 192.518 0 430 0C667.482 0 860 192.518 860 430C860 667.482 667.482 860 430 860ZM430 647.792C309.717 647.792 212.208 550.283 212.208 430C212.208 309.717 309.717 212.208 430 212.208C550.283 212.208 647.792 309.717 647.792 430C647.792 550.283 550.283 647.792 430 647.792Z" fill="#EAEBDC"/>
</svg>
