<svg width="368" height="361" viewBox="0 0 368 361" fill="none" xmlns="http://www.w3.org/2000/svg">
<path d="M204.5 37C116.963 37 46 107.963 46 195.5C46 283.037 116.963 354 204.5 354C292.037 354 363 283.037 363 195.5C363 107.963 292.037 37 204.5 37ZM204.5 107.688C252.997 107.688 292.312 147.003 292.312 195.5C292.312 243.997 252.997 283.312 204.5 283.312C156.003 283.312 116.688 243.997 116.688 195.5C116.688 147.003 156.003 107.688 204.5 107.688Z" stroke="#EAEBDC" stroke-width="10"/>
<path fill-rule="evenodd" clip-rule="evenodd" d="M204.5 41C193.178 41 184 31.8218 184 20.5C184 9.17816 193.178 0 204.5 0C215.822 0 225 9.17816 225 20.5C225 31.8218 215.822 41 204.5 41ZM204.5 30.8831C198.766 30.8831 194.117 26.2344 194.117 20.5C194.117 14.7656 198.766 10.1169 204.5 10.1169C210.234 10.1169 214.883 14.7656 214.883 20.5C214.883 26.2344 210.234 30.8831 204.5 30.8831Z" fill="#EAEBDC"/>
<path fill-rule="evenodd" clip-rule="evenodd" d="M20.5 361C9.17816 361 -1.37091e-06 351.822 -1.37091e-06 340.5C-1.37091e-06 329.178 9.17816 320 20.5 320C31.8218 320 41 329.178 41 340.5C41 351.822 31.8218 361 20.5 361ZM20.5 350.883C14.7656 350.883 10.1169 346.234 10.1169 340.5C10.1169 334.766 14.7656 330.117 20.5 330.117C26.2344 330.117 30.8831 334.766 30.8831 340.5C30.8831 346.234 26.2344 350.883 20.5 350.883Z" fill="#EAEBDC"/>
</svg>
