<svg width="163" height="163" viewBox="0 0 163 163" fill="none" xmlns="http://www.w3.org/2000/svg">
<path opacity="0.4" d="M-7.11083e-06 -0.322266C-1.1038e-05 -90.1662 72.8328 -163 162.677 -163C252.521 -163 325.354 -90.1663 325.354 -0.32228C325.354 89.5216 252.521 162.354 162.677 162.354C128.044 162.354 95.9404 151.53 69.5605 133.083C83.4827 134.178 97.7798 129.403 108.429 118.754C121.394 105.788 125.655 87.4141 121.212 70.8935C133.391 78.0003 147.558 82.0722 162.677 82.0723C208.182 82.0723 245.072 45.183 245.072 -0.322276C245.072 -45.8277 208.182 -82.7178 162.677 -82.7178C117.171 -82.7176 80.2822 -45.8276 80.2822 -0.322269C80.2823 13.0621 83.4744 25.7008 89.1377 36.875C71.9278 31.138 52.1904 35.1153 38.4902 48.8154C28.5786 58.7271 23.7546 71.7994 24.0166 84.7881C8.78626 60.028 4.58037e-05 30.8793 -7.11083e-06 -0.322266ZM55.748 101.496C45.9662 91.7143 45.9663 75.8551 55.748 66.0732C65.5299 56.2914 81.389 56.2914 91.1709 66.0732C100.953 75.8551 100.953 91.7142 91.1709 101.496C81.389 111.278 65.5299 111.278 55.748 101.496Z" fill="#F4F5EB" fill-opacity="0.4"/>
</svg>
