<svg width="117" height="94" viewBox="0 0 117 94" fill="none" xmlns="http://www.w3.org/2000/svg">
<path d="M104.994 72.8608C104.307 72.8538 103.62 72.8608 102.88 72.8608V71.3015C102.88 58.4924 102.88 45.6867 102.88 32.8776C102.88 32.4903 102.905 32.0962 102.859 31.7159C102.739 30.7008 101.925 29.9683 100.957 30.0276C99.9173 30.0904 99.3043 30.6764 99.1423 31.6845C99.0824 32.0648 99.1176 32.459 99.1176 32.8462C99.1176 45.6937 99.1176 58.5377 99.1176 71.3852V72.8573H97.8564C87.1925 72.8573 76.5321 72.8573 65.8682 72.8573C64.1138 72.8573 63.684 73.2166 63.3458 74.9154C63.1344 75.9724 62.4862 76.5689 61.3976 76.5724C57.6739 76.5898 53.9501 76.5898 50.2264 76.5724C49.1907 76.5654 48.5565 75.9828 48.3346 74.9852C47.9224 73.1259 47.5948 72.8573 45.636 72.8573C35.0919 72.8573 24.5442 72.8573 14.0001 72.8573H12.5557V71.4515C12.5557 55.461 12.5557 39.4705 12.5557 23.48C12.5557 21.1882 13.0595 20.6928 15.3846 20.6928C33.0239 20.6928 50.6668 20.6928 68.3061 20.6928C69.9935 20.6928 70.8848 20.0405 70.8813 18.8231C70.8778 17.6022 69.9971 16.9708 68.2955 16.9673C68.218 16.9673 68.137 16.9673 68.0595 16.9673C50.4589 16.9673 32.8548 16.9673 15.2543 16.9673C10.9986 16.9673 8.79322 19.1405 8.79322 23.33C8.79322 39.3205 8.79322 55.311 8.79322 71.3015V72.8643C7.87726 72.8643 7.0987 72.8399 6.32365 72.8678C2.81481 72.9898 0.302965 76.0735 1.00051 79.4851C1.25416 80.7305 1.72271 81.9374 2.12784 83.1479C3.24109 86.4932 5.01312 87.7594 8.56071 87.7594C33.57 87.7594 58.5828 87.7594 83.592 87.7594C90.2962 87.7594 97.0003 87.7664 103.701 87.756C106.276 87.7525 108.334 86.4129 109.204 84.1385C109.718 82.799 110.187 81.4386 110.571 80.0572C111.617 76.2759 108.989 72.9061 104.994 72.8573V72.8608Z" fill="white"/>
<path d="M112.286 8.05112C112.279 4.40233 109.937 2.07562 106.266 2.06864C101.718 2.05817 97.1731 2.06864 92.625 2.06864C87.9606 2.06864 83.2962 2.05469 78.6319 2.07213C75.1935 2.08608 72.7873 4.46163 72.7803 7.86624C72.7662 15.7045 72.7697 23.5463 72.7803 31.3846C72.7803 33.5264 74.1859 34.3113 76.0566 33.2159C78.5191 31.7753 80.9394 30.2683 83.4301 28.8869C84.177 28.4753 85.1035 28.1892 85.949 28.1823C92.7306 28.1265 99.5123 28.1579 106.294 28.1474C109.905 28.1404 112.279 25.8067 112.29 22.2556C112.304 17.5219 112.301 12.7848 112.29 8.05112H112.286ZM83.1271 16.9708C81.2036 16.9708 80.3123 16.3847 80.3053 15.115C80.2982 13.8452 81.1966 13.2452 83.1095 13.2452C85.0366 13.2452 85.9243 13.8278 85.9314 15.0975C85.9384 16.3638 85.033 16.9708 83.1271 16.9708ZM93.2908 16.9638C92.7835 16.9812 92.2727 16.9812 91.7618 16.9638C90.5006 16.9185 89.6763 16.1406 89.715 15.0452C89.7502 13.9952 90.5429 13.2941 91.7618 13.2452C92.0366 13.2348 92.3114 13.2452 92.5862 13.2452C92.8222 13.2452 93.0583 13.2383 93.2908 13.2452C94.5097 13.2941 95.3059 13.9987 95.3411 15.0452C95.3764 16.1336 94.5485 16.915 93.2908 16.9638ZM103.018 16.9499C102.63 16.9917 102.236 16.9568 101.844 16.9568C101.531 16.9568 101.214 16.9847 100.904 16.9568C99.8575 16.8522 99.1389 16.1022 99.1248 15.1324C99.1107 14.1627 99.8223 13.3569 100.855 13.2697C101.556 13.2104 102.267 13.2138 102.968 13.2662C104.015 13.3429 104.737 14.1138 104.747 15.0836C104.761 16.0499 104.046 16.8382 103.014 16.9533L103.018 16.9499Z" fill="white"/>
<path d="M55.8561 24.4218C47.5596 24.4148 40.7991 31.0741 40.7815 39.2716C40.7639 47.4832 47.4857 54.1982 55.754 54.2261C64.0505 54.254 70.8462 47.6122 70.8885 39.4286C70.9308 31.1578 64.1879 24.4253 55.8561 24.4183V24.4218Z" fill="white"/>
<path d="M47.926 57.9901C41.9898 58.1401 37.3713 60.8122 34.0527 65.6888C33.5242 66.4632 33.1649 67.2621 33.6828 68.176C34.176 69.0481 35.0144 69.1423 35.9163 69.1353C39.249 69.1179 42.5817 69.1527 45.9144 69.1213C48.1655 69.1004 49.9657 69.8888 51.2058 71.7795C51.7307 72.5748 52.4459 72.8887 53.39 72.8643C54.919 72.8294 56.4479 72.8085 57.9769 72.8713C59.1465 72.9201 59.9638 72.5399 60.6367 71.5492C61.7358 69.9272 63.3599 69.1458 65.3398 69.1353C67.066 69.1248 68.7888 69.1353 70.515 69.1353C72.28 69.1353 74.045 69.1179 75.8064 69.1423C76.7189 69.1527 77.5432 69.0132 78.0118 68.1307C78.4768 67.2586 78.1492 66.4842 77.6454 65.7412C74.3479 60.8505 69.7364 58.1575 63.8003 57.9936C58.5124 57.8506 53.2139 57.8575 47.926 57.9936V57.9901Z" fill="white"/>
</svg>
