<svg width="75" height="87" viewBox="0 0 75 87" fill="none" xmlns="http://www.w3.org/2000/svg">
<path d="M44.6117 64.3401C43.805 61.7125 42.9918 59.0849 42.1882 56.4541C41.4036 53.8798 41.8515 51.5497 43.8081 49.6424C45.7552 47.7446 48.0994 47.2779 50.7135 48.0671C56.4214 49.7865 62.1293 51.4965 67.8372 53.2065C69.2031 53.6167 70.5721 54.0207 72.0205 54.4529V53.6292C72.0205 38.7249 72.0268 23.8175 72.0205 8.91315C72.0141 3.69241 68.2533 0.00313182 62.9488 0C48.8776 0 34.8032 0 20.7319 0H19.8013V65.4644H44.9262C44.8087 65.0447 44.7197 64.6908 44.6117 64.3401ZM33.0371 22.9312C31.9286 22.5303 31.2838 21.3747 31.4807 20.2472C31.684 19.079 32.6496 18.2178 33.9233 18.2084C37.8684 18.1802 41.8102 18.1927 45.7552 18.1896C45.9871 18.1896 46.219 18.1896 46.4509 18.1896C50.5102 18.1896 54.5696 18.1771 58.629 18.199C60.4713 18.2084 61.6306 19.5895 61.2399 21.2275C61.0049 22.214 60.214 22.9343 59.1944 23.0815C58.9657 23.1128 58.7338 23.1253 58.5019 23.1253C50.4403 23.1253 42.3788 23.1285 34.3172 23.1191C33.8884 23.1191 33.4373 23.0752 33.0403 22.9343L33.0371 22.9312ZM37.8779 31.0238C37.8493 29.5424 38.9007 28.5121 40.5587 28.5027C44.4466 28.4808 48.3344 28.4808 52.2223 28.5027C53.8105 28.5121 54.9063 29.5424 54.9222 30.9424C54.9381 32.3673 53.7978 33.4102 52.1746 33.4196C50.2307 33.4353 48.2868 33.4228 46.3429 33.4228C44.4275 33.4228 42.5122 33.4322 40.5968 33.4196C38.9769 33.4071 37.9065 32.4488 37.8779 31.0207V31.0238Z" fill="white"/>
<path d="M47.5535 77.0427C35.5977 77.0615 23.642 77.0584 11.6893 77.0553C11.2828 77.0553 10.8762 77.0615 10.4696 77.0396C7.4902 76.8767 5.39064 74.6813 5.20958 71.5464C5.03488 68.5555 6.96928 65.9592 9.83117 65.6022C11.3749 65.408 12.9599 65.5302 14.5258 65.5114C14.8625 65.5082 15.1992 65.5114 15.5645 65.5114V0C14.1383 0 12.7788 0 11.4225 0C4.70454 0 0.0130734 4.60377 0.00989706 11.2182C0.000368003 31.2555 -0.0059847 51.2929 0.0130734 71.3334C0.0130734 72.2667 0.171891 73.2251 0.419646 74.127C1.75054 78.9187 6.01003 82.0161 11.2669 82.0223C24.0644 82.0349 36.8587 82.0255 49.6563 82.0255H50.228C49.7357 80.6161 49.2052 79.2914 48.8241 77.9259C48.6176 77.1837 48.2555 77.0427 47.5503 77.0459L47.5535 77.0427Z" fill="white"/>
<path d="M72.9353 59.0536C65.1278 56.6984 57.314 54.359 49.5065 52.007C48.4837 51.6969 47.5531 51.7783 46.7653 52.5425C45.9458 53.3349 45.8855 54.2807 46.2063 55.3204C48.579 63.009 50.9391 70.7008 53.3118 78.3894C53.7501 79.805 54.5919 80.494 55.8116 80.494C57.0059 80.494 57.8222 79.8332 58.2891 78.4677C59.3469 75.3797 60.4141 72.2949 61.4401 69.1944C61.8053 68.0889 62.4946 67.428 63.6159 67.071C66.7827 66.0594 69.9336 64.9946 73.0846 63.9329C74.3932 63.4913 75.0094 62.6645 74.9967 61.4776C74.984 60.2687 74.3361 59.4764 72.9321 59.0536H72.9353Z" fill="white"/>
</svg>
